<svg width="356" height="105" viewBox="0 0 356 105" fill="none" xmlns="http://www.w3.org/2000/svg">
<path d="M160.315 45.1421H171.218C169.072 51.7544 164.206 54.9326 156.363 54.9326C151.073 54.9326 146.857 53.3435 143.857 50.2106C142.408 48.7781 141.261 47.0719 140.482 45.1919C139.703 43.3118 139.308 41.2958 139.321 39.2618C139.333 37.2279 139.753 35.2169 140.555 33.3466C141.358 31.4764 142.526 29.7845 143.993 28.3701C145.545 26.8814 147.378 25.7152 149.386 24.9394C151.394 24.1637 153.537 23.7938 155.69 23.8514C158.342 23.8552 160.967 24.3906 163.407 25.4256C165.847 26.4606 168.054 27.9742 169.896 29.8763L170.16 30.1324L174.838 25.6061L174.558 25.335C171.899 22.643 168.715 20.5209 165.203 19.0992C161.965 17.9564 158.551 17.3905 155.116 17.4272C152.174 17.3803 149.253 17.9243 146.527 19.0267C143.801 20.1291 141.325 21.7674 139.248 23.8438C137.137 25.8467 135.464 28.2627 134.334 30.9401C133.204 33.6176 132.641 36.4989 132.681 39.4033C132.693 45.1833 134.996 50.7245 139.089 54.8196C143.343 59.2932 149.124 61.5601 156.249 61.5601C158.99 61.6115 161.724 61.2639 164.365 60.5283C166.707 59.7876 168.883 58.6008 170.772 57.0338C174.281 54.1904 176.786 50.3033 177.921 45.9404C178.349 43.7072 178.538 41.4352 178.487 39.1623V38.7857H160.315V45.1421Z" fill="#FF2D21"/>
<path d="M75.5177 57.915L58.0551 19.5812L26.1524 90.1259L23.3641 87.362C18.694 82.8138 15.1007 77.2847 12.8457 71.1774C11.3385 66.9093 10.4926 62.4371 10.337 57.915H0C0.152594 61.853 0.712201 65.7648 1.66994 69.5883C4.08796 79.2434 9.22624 87.9569 16.9412 95.4806C17.8858 96.4371 18.921 97.3709 20.2131 98.4479C23 100.846 26.0111 102.972 29.2051 104.797L57.9795 40.7815L87.1997 104.977C90.44 103.183 93.4928 101.072 96.3126 98.6739C97.5518 97.627 98.6626 96.6254 99.7205 95.5936C107.147 88.5269 112.417 79.5119 114.924 69.5883C115.844 65.752 116.381 61.8342 116.526 57.8924L75.5177 57.915ZM103.393 71.1699C101.163 77.2506 97.6329 82.7755 93.0483 87.362L90.26 90.2163L79.9154 67.5399H104.677L103.393 71.1699Z" fill="#FF2D21"/>
<path d="M102.63 19.6188L94.4538 25.7718C93.6982 24.9207 92.8368 24.0697 91.9527 23.2338C82.6358 14.4222 71.0293 9.96378 57.5111 9.96378C51.331 9.87837 45.1965 11.0302 39.4712 13.351C33.7459 15.6718 28.5462 19.1144 24.1803 23.4748C23.3793 24.2279 22.669 25.0262 21.9134 25.7944L13.8281 19.6941C14.9011 18.5192 16.0195 17.382 17.168 16.2975C28.6385 5.48271 42.6252 0 58.7503 0C74.4523 0 88.167 5.5279 99.509 16.4331C100.68 17.5552 101.708 18.6021 102.63 19.6188Z" fill="#FF2D21"/>
<path d="M223.523 34.3498H204.745V18.6849H198.406V60.1668H204.745V40.6007H223.523V60.1668H229.795V18.6849H223.523V34.3498Z" fill="#FF2D21"/>
<path d="M247.182 59.632L246.94 60.1667H253.574L258.267 49.7435H275.117L279.855 60.1667H286.535L266.654 16.5686L247.182 59.632ZM260.692 44.3587L266.647 31.1264L272.692 44.3587H260.692Z" fill="#FF2D21"/>
<path d="M326.432 38.1983C328.243 36.1305 329.23 33.4721 329.205 30.7273C329.231 29.0454 328.856 27.3813 328.111 25.8717C327.367 24.3622 326.273 23.0503 324.921 22.0439C322.095 19.7845 318.392 18.6849 313.926 18.6849H304.708V60.1668H311.048V43.4174H311.72L323.054 60.1668H330.369L318.407 42.604C321.997 41.7153 324.702 40.2392 326.432 38.1983ZM322.654 31.0512C322.687 31.8241 322.56 32.5956 322.28 33.3174C322.001 34.0392 321.575 34.6957 321.029 35.246C319.231 37.0008 315.891 37.8744 311.063 37.8067V24.3635C313.271 24.3149 315.478 24.5094 317.644 24.9434C319.055 25.2522 320.333 25.992 321.301 27.0596C322.233 28.177 322.715 29.5995 322.654 31.0512Z" fill="#FF2D21"/>
<path d="M356 18.6849H349.728V60.1668H356V18.6849Z" fill="#FF2D21"/>
<path d="M153.131 82.3536C153.844 81.5411 154.231 80.4955 154.219 79.4165C154.228 78.7546 154.081 78.0998 153.788 77.5057C153.495 76.9115 153.065 76.3947 152.534 75.9973C151.288 75.0813 149.766 74.6164 148.219 74.6794H144.547V90.9392H147.101V84.4021H147.305L151.718 90.9392H154.673L149.995 84.0708C151.195 83.8389 152.291 83.2385 153.131 82.3536ZM151.567 79.5445C151.581 79.8401 151.533 80.1354 151.427 80.4116C151.32 80.6878 151.157 80.9388 150.947 81.1487C150.26 81.8189 148.983 82.1578 147.131 82.1352V76.9764C147.976 76.9589 148.82 77.0347 149.648 77.2023C150.189 77.3216 150.681 77.6058 151.053 78.0157C151.407 78.445 151.59 78.9893 151.567 79.5445Z" fill="#2D3E40"/>
<path d="M177.357 90.9393H186.56V88.4164H179.888V83.3328H186.56V80.8174H179.888V77.225H186.56V74.6794H177.357V90.9393Z" fill="#2D3E40"/>
<path d="M212.078 74.6794H209.546V90.9393H217.269V88.4164H212.078V74.6794Z" fill="#2D3E40"/>
<path d="M247.706 74.1824C245.328 74.1433 243.032 75.0451 241.321 76.6903C240.475 77.4499 239.801 78.3797 239.342 79.4183C238.884 80.4569 238.651 81.5806 238.661 82.7152C238.645 83.8728 238.87 85.021 239.321 86.0877C239.773 87.1544 240.441 88.1165 241.283 88.9134C242.114 89.7436 243.104 90.3983 244.195 90.8382C245.285 91.2782 246.454 91.4944 247.63 91.474C248.809 91.4963 249.981 91.2832 251.076 90.8474C252.172 90.4115 253.168 89.7616 254.008 88.936C254.847 88.1331 255.511 87.1662 255.958 86.0958C256.406 85.0254 256.627 83.8746 256.607 82.7152C256.615 81.583 256.384 80.4618 255.93 79.424C255.475 78.3862 254.808 77.4549 253.97 76.6903C253.144 75.88 252.165 75.2411 251.09 74.8106C250.015 74.3801 248.864 74.1666 247.706 74.1824ZM253.917 82.8433C253.922 83.635 253.764 84.4192 253.452 85.1473C253.14 85.8754 252.681 86.5318 252.104 87.0758C251.542 87.6478 250.871 88.1008 250.129 88.4076C249.388 88.7143 248.592 88.8684 247.789 88.8607C246.085 88.9001 244.433 88.2729 243.187 87.1134C242.589 86.5749 242.112 85.9156 241.789 85.1794C241.466 84.4431 241.304 83.6468 241.313 82.8433C241.304 82.0462 241.462 81.2562 241.777 80.5235C242.092 79.7908 242.557 79.1317 243.142 78.5881C243.715 78.0134 244.398 77.5597 245.151 77.2543C245.904 76.9489 246.712 76.7981 247.524 76.8108C249.208 76.773 250.838 77.4012 252.058 78.558C252.654 79.1008 253.128 79.7634 253.449 80.502C253.769 81.2407 253.929 82.0386 253.917 82.8433Z" fill="#2D3E40"/>
<path d="M283.266 86.8724C283.266 88.2882 282.767 88.9736 281.754 88.9736C281.19 88.9465 280.634 88.8295 280.107 88.6271L279.964 88.5744L278.702 90.6455L278.883 90.7434C279.741 91.2206 280.704 91.4793 281.686 91.4965C284.437 91.4965 285.835 89.8321 285.835 86.5561V74.7095H283.281L283.266 86.8724Z" fill="#2D3E40"/>
<path d="M309.72 90.9393H318.924V88.4164H312.244V83.3328H318.924V80.8174H312.244V77.225H318.924V74.6794H309.72V90.9393Z" fill="#2D3E40"/>
<path d="M351.809 84.8465C351.617 84.299 351.331 83.7892 350.963 83.3403C350.55 82.8357 350.06 82.3986 349.512 82.0449C348.745 81.5622 347.935 81.1489 347.094 80.8098C346.333 80.5187 345.618 80.1205 344.971 79.6274C344.785 79.4899 344.636 79.3095 344.535 79.1017C344.435 78.8939 344.387 78.665 344.395 78.4346C344.403 78.2041 344.468 77.9792 344.582 77.7789C344.697 77.5787 344.859 77.4093 345.054 77.2852C345.556 76.995 346.12 76.8285 346.7 76.7997C347.279 76.7709 347.858 76.8805 348.386 77.1195C348.834 77.4227 349.244 77.7765 349.61 78.1739L349.731 78.2944L351.771 76.6677L351.666 76.517C351.063 75.741 350.269 75.1338 349.361 74.7547C348.505 74.3819 347.582 74.1847 346.648 74.1748C345.378 74.1455 344.143 74.5915 343.187 75.425C342.548 75.9504 342.09 76.6623 341.877 77.4606C341.664 78.2588 341.708 79.1035 342.001 79.8759C342.197 80.3496 342.468 80.7893 342.802 81.1788C343.171 81.6206 343.61 81.9996 344.102 82.301C344.767 82.6977 345.465 83.0378 346.187 83.3177C346.855 83.5684 347.496 83.8864 348.099 84.2666C348.492 84.5367 348.824 84.8856 349.074 85.2909C349.313 85.6456 349.447 86.0609 349.459 86.4883C349.464 86.802 349.399 87.1128 349.268 87.3981C349.137 87.6834 348.945 87.9361 348.703 88.1377C348.192 88.5829 347.53 88.8172 346.852 88.7929C345.288 88.7929 344.155 87.9569 343.391 86.2247L343.323 86.0817L340.792 86.7896L340.868 86.9779C341.319 88.3128 342.162 89.4825 343.286 90.3368C344.349 91.0885 345.624 91.4841 346.928 91.4665C347.598 91.4777 348.265 91.3556 348.887 91.1074C349.51 90.8591 350.077 90.4896 350.555 90.0205C351.038 89.5712 351.422 89.0264 351.682 88.4208C351.943 87.8152 352.073 87.1622 352.066 86.5034C352.076 85.9405 351.989 85.3801 351.809 84.8465Z" fill="#2D3E40"/>
</svg>
