<svg width="224" height="202" viewBox="0 0 224 202" fill="none" xmlns="http://www.w3.org/2000/svg">
<path d="M128.518 57.915L111.055 19.5812L79.1524 90.1259L76.3641 87.362C71.694 82.8138 68.1007 77.2847 65.8457 71.1774C64.3385 66.9093 63.4926 62.4371 63.337 57.915H53C53.1526 61.853 53.7122 65.7648 54.6699 69.5884C57.088 79.2433 62.2262 87.9569 69.9412 95.4806C70.8858 96.4371 71.921 97.3709 73.2131 98.4479C76 100.846 79.0111 102.972 82.2051 104.797L110.979 40.7815L140.2 104.977C143.44 103.183 146.493 101.072 149.313 98.6738C150.552 97.627 151.663 96.6254 152.721 95.5936C160.147 88.5269 165.417 79.5119 167.924 69.5884C168.844 65.752 169.381 61.8342 169.526 57.8924L128.518 57.915ZM156.393 71.1699C154.163 77.2506 150.633 82.7755 146.048 87.362L143.26 90.2163L132.915 67.5399H157.677L156.393 71.1699Z" fill="#FDE6E2"/>
<path d="M155.63 19.6188L147.454 25.7718C146.698 24.9207 145.837 24.0697 144.953 23.2338C135.636 14.4222 124.029 9.96378 110.511 9.96378C104.331 9.87837 98.1965 11.0302 92.4712 13.351C86.7459 15.6718 81.5462 19.1144 77.1803 23.4748C76.3793 24.2279 75.669 25.0262 74.9134 25.7944L66.8281 19.6941C67.9011 18.5192 69.0195 17.382 70.168 16.2975C81.6385 5.48271 95.6252 0 111.75 0C127.452 0 141.167 5.5279 152.509 16.4331C153.68 17.5552 154.708 18.6021 155.63 19.6188Z" fill="#FDE6E2"/>
<path d="M27.6354 155.142H38.5391C36.3931 161.754 31.5268 164.933 23.6834 164.933C18.394 164.933 14.1776 163.344 11.1777 160.211C9.7289 158.778 8.58142 157.072 7.80251 155.192C7.02361 153.312 6.62893 151.296 6.64159 149.262C6.65426 147.228 7.07402 145.217 7.87628 143.347C8.67855 141.476 9.84718 139.785 11.3137 138.37C12.8654 136.881 14.6987 135.715 16.7068 134.939C18.715 134.164 20.8579 133.794 23.0109 133.851C25.6631 133.855 28.2874 134.391 30.7279 135.426C33.1683 136.461 35.375 137.974 37.2167 139.876L37.4812 140.132L42.1586 135.606L41.879 135.335C39.2195 132.643 36.0362 130.521 32.5243 129.099C29.2862 127.956 25.8715 127.39 22.4366 127.427C19.4949 127.38 16.5738 127.924 13.8476 129.027C11.1213 130.129 8.64573 131.767 6.56839 133.844C4.4577 135.847 2.78494 138.263 1.655 140.94C0.525046 143.618 -0.0377287 146.499 0.00196244 149.403C0.0138152 155.183 2.317 160.725 6.40971 164.82C10.6639 169.293 16.4445 171.56 23.5701 171.56C26.3112 171.611 29.0451 171.264 31.6855 170.528C34.0281 169.788 36.2043 168.601 38.0933 167.034C41.602 164.19 44.1067 160.303 45.2415 155.94C45.6693 153.707 45.8593 151.435 45.8083 149.162V148.786H27.6354V155.142Z" fill="#FDE6E2"/>
<path d="M90.8437 144.35H72.0663V128.685H65.7266V170.167H72.0663V150.601H90.8437V170.167H97.1154V128.685H90.8437V144.35Z" fill="#FDE6E2"/>
<path d="M114.503 169.632L114.261 170.167H120.895L125.588 159.744H142.438L147.176 170.167H153.856L133.975 126.569L114.503 169.632ZM128.013 154.359L133.968 141.126L140.013 154.359H128.013Z" fill="#FDE6E2"/>
<path d="M193.753 148.198C195.564 146.131 196.551 143.472 196.526 140.727C196.552 139.045 196.177 137.381 195.432 135.872C194.687 134.362 193.594 133.05 192.242 132.044C189.416 129.784 185.713 128.685 181.247 128.685H172.029V170.167H178.368V153.417H179.041L190.375 170.167H197.69L185.728 152.604C189.317 151.715 192.023 150.239 193.753 148.198ZM189.975 141.051C190.008 141.824 189.881 142.596 189.601 143.317C189.322 144.039 188.896 144.696 188.35 145.246C186.552 147.001 183.212 147.874 178.383 147.807V134.363C180.592 134.315 182.799 134.509 184.965 134.943C186.375 135.252 187.654 135.992 188.622 137.06C189.554 138.177 190.036 139.6 189.975 141.051Z" fill="#FDE6E2"/>
<path d="M223.321 128.685H217.049V170.167H223.321V128.685Z" fill="#FDE6E2"/>
<path d="M16.584 192.354C17.2965 191.541 17.6838 190.496 17.6721 189.416C17.6812 188.755 17.5334 188.1 17.2406 187.506C16.9477 186.911 16.5182 186.395 15.987 185.997C14.7412 185.081 13.2192 184.616 11.6724 184.679H8V200.939H10.554V194.402H10.758L15.1709 200.939H18.1254L13.4481 194.071C14.6477 193.839 15.7443 193.238 16.584 192.354ZM15.0198 189.545C15.0339 189.84 14.9861 190.135 14.8794 190.412C14.7728 190.688 14.6095 190.939 14.4002 191.149C13.7126 191.819 12.4355 192.158 10.5843 192.135V186.976C11.4288 186.959 12.2727 187.035 13.1005 187.202C13.6423 187.322 14.1335 187.606 14.506 188.016C14.8601 188.445 15.043 188.989 15.0198 189.545Z" fill="#FDE6E2"/>
<path d="M40.8096 200.939H50.0131V198.416H43.3409V193.333H50.0131V190.817H43.3409V187.225H50.0131V184.679H40.8096V200.939Z" fill="#FDE6E2"/>
<path d="M75.5306 184.679H72.9993V200.939H80.7218V198.416H75.5306V184.679Z" fill="#FDE6E2"/>
<path d="M111.159 184.182C108.781 184.143 106.485 185.045 104.774 186.69C103.928 187.45 103.254 188.38 102.795 189.418C102.337 190.457 102.104 191.581 102.114 192.715C102.098 193.873 102.323 195.021 102.774 196.088C103.226 197.154 103.893 198.116 104.736 198.913C105.567 199.744 106.557 200.398 107.648 200.838C108.738 201.278 109.907 201.494 111.083 201.474C112.262 201.496 113.434 201.283 114.529 200.847C115.625 200.411 116.621 199.762 117.461 198.936C118.3 198.133 118.964 197.166 119.411 196.096C119.859 195.025 120.079 193.875 120.06 192.715C120.068 191.583 119.837 190.462 119.383 189.424C118.928 188.386 118.261 187.455 117.423 186.69C116.597 185.88 115.618 185.241 114.543 184.811C113.468 184.38 112.317 184.167 111.159 184.182ZM117.37 192.843C117.375 193.635 117.216 194.419 116.904 195.147C116.592 195.875 116.134 196.532 115.556 197.076C114.995 197.648 114.324 198.101 113.582 198.408C112.841 198.714 112.045 198.868 111.242 198.861C109.538 198.9 107.886 198.273 106.64 197.113C106.042 196.575 105.565 195.916 105.242 195.179C104.919 194.443 104.757 193.647 104.766 192.843C104.757 192.046 104.915 191.256 105.23 190.523C105.545 189.791 106.01 189.132 106.595 188.588C107.168 188.013 107.851 187.56 108.604 187.254C109.357 186.949 110.164 186.798 110.977 186.811C112.661 186.773 114.291 187.401 115.511 188.558C116.107 189.101 116.581 189.763 116.902 190.502C117.222 191.241 117.382 192.039 117.37 192.843Z" fill="#FDE6E2"/>
<path d="M146.719 196.872C146.719 198.288 146.22 198.974 145.207 198.974C144.643 198.946 144.087 198.83 143.56 198.627L143.416 198.574L142.155 200.645L142.336 200.743C143.194 201.221 144.157 201.479 145.139 201.497C147.89 201.497 149.288 199.832 149.288 196.556V184.709H146.734L146.719 196.872Z" fill="#FDE6E2"/>
<path d="M173.173 200.939H182.377V198.416H175.697V193.333H182.377V190.817H175.697V187.225H182.377V184.679H173.173V200.939Z" fill="#FDE6E2"/>
<path d="M215.262 194.847C215.07 194.299 214.784 193.789 214.416 193.34C214.003 192.836 213.513 192.399 212.965 192.045C212.197 191.562 211.388 191.149 210.547 190.81C209.786 190.519 209.071 190.121 208.424 189.627C208.238 189.49 208.088 189.31 207.988 189.102C207.888 188.894 207.84 188.665 207.848 188.435C207.856 188.204 207.92 187.979 208.035 187.779C208.15 187.579 208.312 187.409 208.507 187.285C209.009 186.995 209.573 186.829 210.153 186.8C210.732 186.771 211.31 186.881 211.839 187.12C212.287 187.423 212.697 187.776 213.063 188.174L213.184 188.294L215.224 186.668L215.118 186.517C214.516 185.741 213.722 185.134 212.814 184.755C211.958 184.382 211.035 184.185 210.101 184.175C208.831 184.145 207.596 184.592 206.64 185.425C206.001 185.95 205.543 186.662 205.33 187.461C205.117 188.259 205.16 189.103 205.454 189.876C205.65 190.35 205.921 190.789 206.255 191.179C206.624 191.621 207.063 192 207.555 192.301C208.22 192.698 208.917 193.038 209.64 193.318C210.308 193.568 210.949 193.886 211.552 194.267C211.945 194.537 212.277 194.886 212.527 195.291C212.766 195.646 212.9 196.061 212.912 196.488C212.917 196.802 212.852 197.113 212.721 197.398C212.59 197.683 212.397 197.936 212.156 198.138C211.645 198.583 210.983 198.817 210.305 198.793C208.741 198.793 207.607 197.957 206.844 196.225L206.776 196.082L204.245 196.79L204.32 196.978C204.772 198.313 205.614 199.483 206.738 200.337C207.802 201.089 209.077 201.484 210.381 201.466C211.051 201.478 211.717 201.356 212.34 201.107C212.963 200.859 213.53 200.49 214.008 200.02C214.491 199.571 214.875 199.026 215.135 198.421C215.396 197.815 215.526 197.162 215.519 196.503C215.529 195.941 215.442 195.38 215.262 194.847Z" fill="#FDE6E2"/>
</svg>
